<svg width="449" height="379" viewBox="0 0 449 379" fill="none" xmlns="http://www.w3.org/2000/svg">
<path d="M80.303 164L68.166 126.9H77.07L87.617 159.76H83.165L94.189 126.9H102.139L112.739 159.76H108.446L119.258 126.9H127.473L115.336 164H106.114L96.733 135.168H99.171L89.525 164H80.303ZM143.712 164.424C140.461 164.424 137.599 163.788 135.126 162.516C132.688 161.244 130.798 159.513 129.455 157.322C128.112 155.096 127.441 152.57 127.441 149.743C127.441 146.881 128.095 144.355 129.402 142.164C130.745 139.938 132.564 138.207 134.861 136.97C137.158 135.698 139.755 135.062 142.652 135.062C145.443 135.062 147.952 135.663 150.178 136.864C152.439 138.03 154.224 139.726 155.531 141.952C156.838 144.143 157.492 146.775 157.492 149.849C157.492 150.167 157.474 150.538 157.439 150.962C157.404 151.351 157.368 151.722 157.333 152.075H134.172V147.252H152.987L149.807 148.683C149.807 147.199 149.507 145.909 148.906 144.814C148.305 143.719 147.475 142.871 146.415 142.27C145.355 141.634 144.118 141.316 142.705 141.316C141.292 141.316 140.037 141.634 138.942 142.27C137.882 142.871 137.052 143.736 136.451 144.867C135.85 145.962 135.55 147.27 135.55 148.789V150.061C135.55 151.616 135.886 152.994 136.557 154.195C137.264 155.361 138.235 156.262 139.472 156.898C140.744 157.499 142.228 157.799 143.924 157.799C145.443 157.799 146.768 157.569 147.899 157.11C149.065 156.651 150.125 155.962 151.079 155.043L155.478 159.813C154.171 161.297 152.528 162.445 150.549 163.258C148.57 164.035 146.291 164.424 143.712 164.424ZM162.997 164V124.674H171.265V164H162.997ZM192.718 164.424C189.644 164.424 186.906 163.806 184.503 162.569C182.1 161.297 180.21 159.548 178.832 157.322C177.489 155.096 176.818 152.57 176.818 149.743C176.818 146.881 177.489 144.355 178.832 142.164C180.21 139.938 182.1 138.207 184.503 136.97C186.906 135.698 189.644 135.062 192.718 135.062C195.721 135.062 198.336 135.698 200.562 136.97C202.788 138.207 204.431 139.991 205.491 142.323L199.078 145.768C198.336 144.425 197.4 143.436 196.269 142.8C195.174 142.164 193.972 141.846 192.665 141.846C191.252 141.846 189.98 142.164 188.849 142.8C187.718 143.436 186.817 144.337 186.146 145.503C185.51 146.669 185.192 148.082 185.192 149.743C185.192 151.404 185.51 152.817 186.146 153.983C186.817 155.149 187.718 156.05 188.849 156.686C189.98 157.322 191.252 157.64 192.665 157.64C193.972 157.64 195.174 157.34 196.269 156.739C197.4 156.103 198.336 155.096 199.078 153.718L205.491 157.216C204.431 159.513 202.788 161.297 200.562 162.569C198.336 163.806 195.721 164.424 192.718 164.424ZM223.457 164.424C220.419 164.424 217.716 163.788 215.348 162.516C213.016 161.244 211.161 159.513 209.783 157.322C208.441 155.096 207.769 152.57 207.769 149.743C207.769 146.881 208.441 144.355 209.783 142.164C211.161 139.938 213.016 138.207 215.348 136.97C217.716 135.698 220.419 135.062 223.457 135.062C226.461 135.062 229.146 135.698 231.513 136.97C233.881 138.207 235.736 139.92 237.078 142.111C238.421 144.302 239.092 146.846 239.092 149.743C239.092 152.57 238.421 155.096 237.078 157.322C235.736 159.513 233.881 161.244 231.513 162.516C229.146 163.788 226.461 164.424 223.457 164.424ZM223.457 157.64C224.835 157.64 226.072 157.322 227.167 156.686C228.263 156.05 229.128 155.149 229.764 153.983C230.4 152.782 230.718 151.368 230.718 149.743C230.718 148.082 230.4 146.669 229.764 145.503C229.128 144.337 228.263 143.436 227.167 142.8C226.072 142.164 224.835 141.846 223.457 141.846C222.079 141.846 220.843 142.164 219.747 142.8C218.652 143.436 217.769 144.337 217.097 145.503C216.461 146.669 216.143 148.082 216.143 149.743C216.143 151.368 216.461 152.782 217.097 153.983C217.769 155.149 218.652 156.05 219.747 156.686C220.843 157.322 222.079 157.64 223.457 157.64ZM281.136 135.062C283.397 135.062 285.393 135.521 287.125 136.44C288.891 137.323 290.269 138.701 291.259 140.574C292.283 142.411 292.796 144.779 292.796 147.676V164H284.528V148.948C284.528 146.651 284.051 144.955 283.097 143.86C282.143 142.765 280.8 142.217 279.069 142.217C277.867 142.217 276.79 142.5 275.836 143.065C274.882 143.595 274.14 144.408 273.61 145.503C273.08 146.598 272.815 147.994 272.815 149.69V164H264.547V148.948C264.547 146.651 264.07 144.955 263.116 143.86C262.197 142.765 260.872 142.217 259.141 142.217C257.939 142.217 256.862 142.5 255.908 143.065C254.954 143.595 254.212 144.408 253.682 145.503C253.152 146.598 252.887 147.994 252.887 149.69V164H244.619V135.486H252.516V143.277L251.032 140.998C252.021 139.055 253.417 137.588 255.219 136.599C257.056 135.574 259.141 135.062 261.473 135.062C264.087 135.062 266.366 135.733 268.31 137.076C270.288 138.383 271.596 140.397 272.232 143.118L269.317 142.323C270.271 140.097 271.79 138.33 273.875 137.023C275.995 135.716 278.415 135.062 281.136 135.062ZM314.565 164.424C311.314 164.424 308.452 163.788 305.979 162.516C303.541 161.244 301.65 159.513 300.308 157.322C298.965 155.096 298.294 152.57 298.294 149.743C298.294 146.881 298.947 144.355 300.255 142.164C301.597 139.938 303.417 138.207 305.714 136.97C308.01 135.698 310.607 135.062 313.505 135.062C316.296 135.062 318.805 135.663 321.031 136.864C323.292 138.03 325.076 139.726 326.384 141.952C327.691 144.143 328.345 146.775 328.345 149.849C328.345 150.167 328.327 150.538 328.292 150.962C328.256 151.351 328.221 151.722 328.186 152.075H305.025V147.252H323.84L320.66 148.683C320.66 147.199 320.359 145.909 319.759 144.814C319.158 143.719 318.328 142.871 317.268 142.27C316.208 141.634 314.971 141.316 313.558 141.316C312.144 141.316 310.89 141.634 309.795 142.27C308.735 142.871 307.904 143.736 307.304 144.867C306.703 145.962 306.403 147.27 306.403 148.789V150.061C306.403 151.616 306.738 152.994 307.41 154.195C308.116 155.361 309.088 156.262 310.325 156.898C311.597 157.499 313.081 157.799 314.777 157.799C316.296 157.799 317.621 157.569 318.752 157.11C319.918 156.651 320.978 155.962 321.932 155.043L326.331 159.813C325.023 161.297 323.38 162.445 321.402 163.258C319.423 164.035 317.144 164.424 314.565 164.424ZM360.519 164.424C357.162 164.424 354.548 163.576 352.675 161.88C350.802 160.149 349.866 157.587 349.866 154.195V129.179H358.134V154.089C358.134 155.29 358.452 156.227 359.088 156.898C359.724 157.534 360.59 157.852 361.685 157.852C362.992 157.852 364.105 157.499 365.024 156.792L367.25 162.622C366.402 163.223 365.377 163.682 364.176 164C363.01 164.283 361.791 164.424 360.519 164.424ZM345.467 142.482V136.122H365.236V142.482H345.467ZM384.579 164.424C381.541 164.424 378.838 163.788 376.47 162.516C374.138 161.244 372.283 159.513 370.905 157.322C369.563 155.096 368.891 152.57 368.891 149.743C368.891 146.881 369.563 144.355 370.905 142.164C372.283 139.938 374.138 138.207 376.47 136.97C378.838 135.698 381.541 135.062 384.579 135.062C387.583 135.062 390.268 135.698 392.635 136.97C395.003 138.207 396.858 139.92 398.2 142.111C399.543 144.302 400.214 146.846 400.214 149.743C400.214 152.57 399.543 155.096 398.2 157.322C396.858 159.513 395.003 161.244 392.635 162.516C390.268 163.788 387.583 164.424 384.579 164.424ZM384.579 157.64C385.957 157.64 387.194 157.322 388.289 156.686C389.385 156.05 390.25 155.149 390.886 153.983C391.522 152.782 391.84 151.368 391.84 149.743C391.84 148.082 391.522 146.669 390.886 145.503C390.25 144.337 389.385 143.436 388.289 142.8C387.194 142.164 385.957 141.846 384.579 141.846C383.201 141.846 381.965 142.164 380.869 142.8C379.774 143.436 378.891 144.337 378.219 145.503C377.583 146.669 377.265 148.082 377.265 149.743C377.265 151.368 377.583 152.782 378.219 153.983C378.891 155.149 379.774 156.05 380.869 156.686C381.965 157.322 383.201 157.64 384.579 157.64Z" fill="#111719"/>
<path d="M85.81 222.54C83.38 222.54 81.115 222.15 79.015 221.37C76.945 220.56 75.145 219.42 73.615 217.95C72.085 216.48 70.885 214.755 70.015 212.775C69.175 210.795 68.755 208.62 68.755 206.25C68.755 203.88 69.175 201.705 70.015 199.725C70.885 197.745 72.085 196.02 73.615 194.55C75.175 193.08 76.99 191.955 79.06 191.175C81.13 190.365 83.395 189.96 85.855 189.96C88.585 189.96 91.045 190.44 93.235 191.4C95.455 192.33 97.315 193.71 98.815 195.54L94.135 199.86C93.055 198.63 91.855 197.715 90.535 197.115C89.215 196.485 87.775 196.17 86.215 196.17C84.745 196.17 83.395 196.41 82.165 196.89C80.935 197.37 79.87 198.06 78.97 198.96C78.07 199.86 77.365 200.925 76.855 202.155C76.375 203.385 76.135 204.75 76.135 206.25C76.135 207.75 76.375 209.115 76.855 210.345C77.365 211.575 78.07 212.64 78.97 213.54C79.87 214.44 80.935 215.13 82.165 215.61C83.395 216.09 84.745 216.33 86.215 216.33C87.775 216.33 89.215 216.03 90.535 215.43C91.855 214.8 93.055 213.855 94.135 212.595L98.815 216.915C97.315 218.745 95.455 220.14 93.235 221.1C91.045 222.06 88.57 222.54 85.81 222.54ZM103.738 222V190.5H111.028V222H103.738ZM118.504 222V190.5H124.534L143.119 213.18H140.194V190.5H147.394V222H141.409L122.779 199.32H125.704V222H118.504ZM161.551 203.19H176.716V208.86H161.551V203.19ZM162.091 216.15H179.236V222H154.846V190.5H178.651V196.35H162.091V216.15ZM185.037 222V190.5H191.067L204.477 212.73H201.282L214.467 190.5H220.452L220.542 222H213.702L213.657 200.985H214.917L204.387 218.67H201.102L190.347 200.985H191.877V222H185.037ZM223.875 222L237.915 190.5H245.115L259.2 222H251.55L240.03 194.19H242.91L231.345 222H223.875ZM230.895 215.25L232.83 209.715H249.03L251.01 215.25H230.895Z" fill="white"/>
<path d="M443.728 141.282C444.3 168.89 293.228 345.282 273.842 373.049C145.228 312.282 3.30025 307.39 2.72789 279.782C2.15554 252.174 246.234 349.854 273.842 349.282C301.45 348.71 443.155 113.674 443.728 141.282Z" fill="white"/>
<path d="M180.427 74.2573C180.208 113.931 158.216 42.5257 130.602 42.3732C102.988 42.2207 80.2094 113.379 80.4285 73.7051C80.6476 34.031 103.211 1.9924 130.824 2.14489C158.438 2.29739 180.646 34.5832 180.427 74.2573Z" fill="white"/>
<path d="M381.343 75.1098C380.029 114.763 360.016 42.7773 332.417 41.8628C304.818 40.9483 280.084 111.451 281.398 71.798C282.712 32.1451 306.151 0.741375 333.75 1.65591C361.349 2.57044 382.657 35.4569 381.343 75.1098Z" fill="white"/>
</svg>
